<svg width="32" height="32" viewBox="0 0 32 32" fill="none" xmlns="http://www.w3.org/2000/svg">
  <!-- Background circle with gradient -->
  <defs>
    <linearGradient id="bgGradient" x1="0%" y1="0%" x2="100%" y2="100%">
      <stop offset="0%" style="stop-color:#10B981;stop-opacity:1" />
      <stop offset="100%" style="stop-color:#059669;stop-opacity:1" />
    </linearGradient>
  </defs>
  
  <!-- Background circle -->
  <circle cx="16" cy="16" r="16" fill="url(#bgGradient)"/>
  
  <!-- Drone body (more streamlined) -->
  <rect x="13" y="14" width="6" height="4" rx="1" fill="white"/>
  
  <!-- Drone arms (more aerodynamic) -->
  <rect x="9" y="15" width="4" height="2" rx="1" fill="white"/>
  <rect x="19" y="15" width="4" height="2" rx="1" fill="white"/>
  <rect x="15" y="11" width="2" height="4" rx="1" fill="white"/>
  <rect x="15" y="19" width="2" height="4" rx="1" fill="white"/>
  
  <!-- Propellers (more detailed) -->
  <circle cx="11" cy="16" r="2" fill="none" stroke="white" stroke-width="0.5"/>
  <circle cx="21" cy="16" r="2" fill="none" stroke="white" stroke-width="0.5"/>
  <circle cx="16" cy="11" r="2" fill="none" stroke="white" stroke-width="0.5"/>
  <circle cx="16" cy="21" r="2" fill="none" stroke="white" stroke-width="0.5"/>
  
  <!-- Propeller centers -->
  <circle cx="11" cy="16" r="0.8" fill="white"/>
  <circle cx="21" cy="16" r="0.8" fill="white"/>
  <circle cx="16" cy="11" r="0.8" fill="white"/>
  <circle cx="16" cy="21" r="0.8" fill="white"/>
  
  <!-- Spray droplets (more elegant) -->
  <ellipse cx="14" y="24" rx="1" ry="1.5" fill="white" opacity="0.8"/>
  <ellipse cx="18" y="25" rx="0.8" ry="1.2" fill="white" opacity="0.6"/>
  <ellipse cx="16" y="27" rx="0.6" ry="1" fill="white" opacity="0.4"/>
  
  <!-- Subtle highlight on drone body -->
  <ellipse cx="15" cy="15" rx="1.5" ry="0.8" fill="white" opacity="0.3"/>
</svg>