<svg width="32" height="32" viewBox="0 0 32 32" fill="none" xmlns="http://www.w3.org/2000/svg">
  <!-- Background circle with gradient -->
  <defs>
    <linearGradient id="bgGradient" x1="0%" y1="0%" x2="100%" y2="100%">
      <stop offset="0%" style="stop-color:#28a745;stop-opacity:1" />
      <stop offset="100%" style="stop-color:#20c997;stop-opacity:1" />
    </linearGradient>
  </defs>
  
  <!-- Background circle -->
  <circle cx="16" cy="16" r="16" fill="url(#bgGradient)"/>
  
  <!-- Agricultural leaf background -->
  <path d="M16 4C12 6 10 10 10 14C10 18 12 22 16 24C20 22 22 18 22 14C22 10 20 6 16 4Z" fill="white" opacity="0.15"/>
  
  <!-- Drone body -->
  <rect x="13" y="13" width="6" height="4" rx="1" fill="white"/>
  
  <!-- Drone arms -->
  <rect x="9" y="14" width="4" height="2" rx="1" fill="white"/>
  <rect x="19" y="14" width="4" height="2" rx="1" fill="white"/>
  <rect x="14" y="10" width="4" height="3" rx="1" fill="white"/>
  <rect x="14" y="19" width="4" height="3" rx="1" fill="white"/>
  
  <!-- Propellers -->
  <circle cx="11" cy="15" r="2" fill="none" stroke="white" stroke-width="0.8"/>
  <circle cx="21" cy="15" r="2" fill="none" stroke="white" stroke-width="0.8"/>
  <circle cx="16" cy="11" r="2" fill="none" stroke="white" stroke-width="0.8"/>
  <circle cx="16" cy="21" r="2" fill="none" stroke="white" stroke-width="0.8"/>
  
  <!-- Propeller centers -->
  <circle cx="11" cy="15" r="0.8" fill="white"/>
  <circle cx="21" cy="15" r="0.8" fill="white"/>
  <circle cx="16" cy="11" r="0.8" fill="white"/>
  <circle cx="16" cy="21" r="0.8" fill="white"/>
  
  <!-- Spray droplets -->
  <ellipse cx="13" y="25" rx="1.2" ry="1.8" fill="white" opacity="0.8"/>
  <ellipse cx="19" y="26" rx="1" ry="1.5" fill="white" opacity="0.6"/>
  <ellipse cx="16" y="28" rx="0.8" ry="1.2" fill="white" opacity="0.4"/>
  
  <!-- Field lines -->
  <path d="M4 24L28 24" stroke="white" stroke-width="0.8" opacity="0.3"/>
  <path d="M4 26L28 26" stroke="white" stroke-width="0.8" opacity="0.3"/>
  <path d="M4 28L28 28" stroke="white" stroke-width="0.8" opacity="0.3"/>
</svg>