<svg width="32" height="32" viewBox="0 0 32 32" fill="none" xmlns="http://www.w3.org/2000/svg">
  <!-- Background circle with gradient -->
  <defs>
    <linearGradient id="bgGradient" x1="0%" y1="0%" x2="100%" y2="100%">
      <stop offset="0%" style="stop-color:#059669;stop-opacity:1" />
      <stop offset="100%" style="stop-color:#10B981;stop-opacity:1" />
    </linearGradient>
    <linearGradient id="droneGradient" x1="0%" y1="0%" x2="100%" y2="100%">
      <stop offset="0%" style="stop-color:#FFFFFF;stop-opacity:1" />
      <stop offset="100%" style="stop-color:#F3F4F6;stop-opacity:1" />
    </linearGradient>
  </defs>
  
  <!-- Background circle -->
  <circle cx="16" cy="16" r="16" fill="url(#bgGradient)"/>
  
  <!-- Drone body (more streamlined) -->
  <ellipse cx="16" cy="16" rx="3" ry="2" fill="url(#droneGradient)"/>
  
  <!-- Drone arms (more aerodynamic) -->
  <rect x="10" y="15.5" width="6" height="1" rx="0.5" fill="url(#droneGradient)"/>
  <rect x="16" y="15.5" width="6" height="1" rx="0.5" fill="url(#droneGradient)"/>
  <rect x="15.5" y="10" width="1" height="6" rx="0.5" fill="url(#droneGradient)"/>
  <rect x="15.5" y="16" width="1" height="6" rx="0.5" fill="url(#droneGradient)"/>
  
  <!-- Propellers (more detailed) -->
  <circle cx="13" cy="16" r="1.8" fill="none" stroke="url(#droneGradient)" stroke-width="0.3"/>
  <circle cx="19" cy="16" r="1.8" fill="none" stroke="url(#droneGradient)" stroke-width="0.3"/>
  <circle cx="16" cy="13" r="1.8" fill="none" stroke="url(#droneGradient)" stroke-width="0.3"/>
  <circle cx="16" cy="19" r="1.8" fill="none" stroke="url(#droneGradient)" stroke-width="0.3"/>
  
  <!-- Propeller centers -->
  <circle cx="13" cy="16" r="0.5" fill="url(#droneGradient)"/>
  <circle cx="19" cy="16" r="0.5" fill="url(#droneGradient)"/>
  <circle cx="16" cy="13" r="0.5" fill="url(#droneGradient)"/>
  <circle cx="16" cy="19" r="0.5" fill="url(#droneGradient)"/>
  
  <!-- Spray droplets (more elegant) -->
  <ellipse cx="14" y="22" rx="0.8" ry="1.2" fill="url(#droneGradient)" opacity="0.8"/>
  <ellipse cx="18" y="24" rx="0.6" ry="1" fill="url(#droneGradient)" opacity="0.6"/>
  <ellipse cx="16" y="26" rx="0.4" ry="0.8" fill="url(#droneGradient)" opacity="0.4"/>
  
  <!-- Subtle highlight -->
  <ellipse cx="14" cy="14" rx="1" ry="0.5" fill="url(#droneGradient)" opacity="0.3"/>
</svg>